PathFileType  4	(X/Y/Z) C:\Users\wagnerel85475\Documents\Thesis\opencap-core\Data\3375ffbc-daeb-4a43-b4f7-ac9899cd4c71\MarkerData\PreAugmentation
DataRate	CameraRate	NumFrames	NumMarkers	Units	OrigDataRate	OrigDataStartFrame	OrigNumFrames
60.0	60.0	18	20	m	60.0	81	641
Frame#	Time	Neck			RShoulder			RElbow			RWrist			LShoulder			LElbow			LWrist			midHip			RHip			RKnee			RAnkle			LHip			LKnee			LAnkle			LBigToe			LSmallToe			LHeel			RBigToe			RSmallToe			RHeel			
		X1	Y1	Z1	X2	Y2	Z2	X3	Y3	Z3	X4	Y4	Z4	X5	Y5	Z5	X6	Y6	Z6	X7	Y7	Z7	X8	Y8	Z8	X9	Y9	Z9	X10	Y10	Z10	X11	Y11	Z11	X12	Y12	Z12	X13	Y13	Z13	X14	Y14	Z14	X15	Y15	Z15	X16	Y16	Z16	X17	Y17	Z17	X18	Y18	Z18	X19	Y19	Z19	X20	Y20	Z20	

81	1.3333333	0.5807300	1.3635900	-0.0905600	0.5686600	1.3666400	0.0852600	0.5407100	1.0612900	0.1685200	0.6827600	0.7943100	0.2118600	0.5700900	1.3644400	-0.2826700	0.5696100	1.1210600	-0.4204700	0.8666300	1.0254800	-0.4103100	0.6019100	0.8064000	-0.0844200	0.6180500	0.8070100	0.0393700	0.5755900	0.3232600	0.0384000	0.5396400	-0.1781000	0.0883100	0.6222100	0.8056900	-0.2045100	0.5749300	0.3171100	-0.2104700	0.5581500	-0.1623000	-0.2616700	0.7720000	-0.2134800	-0.3250600	0.7033300	-0.2230900	-0.3648200	0.5122000	-0.2263500	-0.2470500	0.7325400	-0.2292200	0.1690100	0.6816400	-0.2295200	0.1980900	0.4657900	-0.2373800	0.0642000
82	1.3500000	0.5805000	1.3604300	-0.0906600	0.5699100	1.3667600	0.0852700	0.5413700	1.0570100	0.1681200	0.6911100	0.7979700	0.2069000	0.5780900	1.3612300	-0.2787500	0.5704000	1.1136000	-0.4194700	0.8676000	1.0083000	-0.4095300	0.6022300	0.8031800	-0.0839900	0.6186000	0.8069700	0.0393000	0.5752100	0.3235800	0.0388600	0.5399700	-0.1810400	0.0889500	0.6232500	0.8051500	-0.2049700	0.5762300	0.3188300	-0.2100300	0.5583500	-0.1623100	-0.2617500	0.7722000	-0.2138400	-0.3250300	0.7023800	-0.2269200	-0.3653900	0.5122700	-0.2268700	-0.2470200	0.7323200	-0.2293100	0.1691700	0.6811600	-0.2295100	0.1979600	0.4655300	-0.2400400	0.0650000
83	1.3666667	0.5808400	1.3604200	-0.0905700	0.5684900	1.3666900	0.0852500	0.5408600	1.0614000	0.1684400	0.6916900	0.7983900	0.2068600	0.5794900	1.3605200	-0.2787700	0.5791800	1.0986800	-0.4156300	0.8748800	0.9861000	-0.4058700	0.6021900	0.8064000	-0.0843900	0.6182300	0.8069900	0.0392500	0.5756000	0.3232700	0.0384200	0.5396600	-0.1779900	0.0882900	0.6320600	0.8066100	-0.2004700	0.5749000	0.3170900	-0.2104900	0.5580900	-0.1624100	-0.2616700	0.7720600	-0.2137100	-0.3250500	0.7025200	-0.2269400	-0.3653300	0.5121500	-0.2266700	-0.2470800	0.7243200	-0.2323300	0.1736100	0.6816800	-0.2296200	0.1981600	0.4658300	-0.2372800	0.0641100
84	1.3833333	0.5805100	1.3602500	-0.0907400	0.5697300	1.3668300	0.0852200	0.5408300	1.0615200	0.1682300	0.6996800	0.8022100	0.2019700	0.5691100	1.3536500	-0.2828300	0.5798900	1.0908700	-0.4146700	0.8501500	0.9694000	-0.3947300	0.6109300	0.8075300	-0.0883800	0.6271500	0.8080200	0.0347900	0.5748900	0.3199600	0.0393300	0.5398400	-0.1777900	0.0882700	0.6231200	0.8051800	-0.2050600	0.5758000	0.3145100	-0.2103000	0.5583600	-0.1622500	-0.2617300	0.7639600	-0.2168100	-0.3288000	0.7029900	-0.2233600	-0.3649000	0.5123400	-0.2267700	-0.2469700	0.7246900	-0.2292000	0.1731800	0.6813000	-0.2297800	0.1979900	0.4658400	-0.2342900	0.0636500
85	1.4000000	0.5808000	1.3601700	-0.0907000	0.5683400	1.3667000	0.0851900	0.5408700	1.0614600	0.1685900	0.6998500	0.8026300	0.2020500	0.5704400	1.3531900	-0.2828400	0.5706800	1.0821900	-0.4114800	0.8235800	0.9636400	-0.3841300	0.6019400	0.8063700	-0.0844500	0.6186300	0.8099300	0.0389700	0.5753400	0.3272300	0.0388500	0.5397800	-0.1780600	0.0882700	0.6222000	0.8057000	-0.2044800	0.5749200	0.3139200	-0.2100300	0.5484400	-0.1657100	-0.2577000	0.7635500	-0.2165700	-0.3288300	0.7030100	-0.2232200	-0.3649100	0.5122500	-0.2264300	-0.2470300	0.7150200	-0.2330800	0.1700900	0.6823700	-0.2268400	0.1974700	0.4659500	-0.2373800	0.0641100
86	1.4166667	0.5805000	1.3600800	-0.0907500	0.5696600	1.3668200	0.0852000	0.5519500	1.0652000	0.1714000	0.7001900	0.8027100	0.2017200	0.5690900	1.3534500	-0.2829000	0.5710600	1.0789300	-0.4106900	0.8246100	0.9556700	-0.3832700	0.6112800	0.8108800	-0.0886100	0.6275700	0.8111100	0.0344900	0.5752400	0.3310100	0.0388900	0.5399300	-0.1819000	0.0877200	0.6231900	0.8092300	-0.2051800	0.5754600	0.3143900	-0.2102300	0.5487100	-0.1656200	-0.2577400	0.7640600	-0.2130500	-0.3283300	0.6944900	-0.2260200	-0.3688100	0.5216000	-0.2232900	-0.2431700	0.7248300	-0.2296200	0.1731400	0.6818300	-0.2269600	0.1973100	0.4760000	-0.2339700	0.0674600
87	1.4333333	0.5807500	1.3600400	-0.0907600	0.5682200	1.3667000	0.0851500	0.5520500	1.0653300	0.1716800	0.7002900	0.8100100	0.2018500	0.5703400	1.3563600	-0.2828600	0.5516100	1.0738000	-0.4035700	0.8239000	0.9419800	-0.3759200	0.6021800	0.8096500	-0.0847500	0.6185000	0.8101000	0.0388700	0.5757300	0.3233300	0.0383800	0.5399100	-0.1821400	0.0876900	0.6221900	0.8094200	-0.2046700	0.5747500	0.3137800	-0.2100600	0.5581300	-0.1623700	-0.2616500	0.7631900	-0.2165100	-0.3288500	0.6946000	-0.2259900	-0.3687400	0.5215100	-0.2228500	-0.2432400	0.7251800	-0.2292500	0.1730700	0.6824900	-0.2266800	0.1975300	0.4763100	-0.2341400	0.0672700
88	1.4500000	0.5802700	1.3598600	-0.0908300	0.5592100	1.3670600	0.0818800	0.5433200	1.0650700	0.1762300	0.7103200	0.8112900	0.2044900	0.5778700	1.3531300	-0.2868200	0.5610000	1.0742900	-0.3986600	0.8244400	0.9306600	-0.3750700	0.6020900	0.8065600	-0.0841500	0.6187400	0.8101300	0.0390300	0.5758600	0.3271000	0.0384200	0.5399200	-0.1820100	0.0877600	0.6231600	0.8054800	-0.2052600	0.5758300	0.3112800	-0.2098800	0.5486900	-0.1656500	-0.2577400	0.7634300	-0.2168600	-0.3288700	0.6944600	-0.2261700	-0.3688300	0.5215800	-0.2232500	-0.2431600	0.7251800	-0.2296500	0.1731200	0.6819600	-0.2269500	0.1973100	0.4759700	-0.2340800	0.0675400
89	1.4666667	0.5709700	1.3600400	-0.0944400	0.5578600	1.3669500	0.0818000	0.5541800	1.0658800	0.1797300	0.7182300	0.8197100	0.2003800	0.5792100	1.3525700	-0.2867900	0.5505200	1.0735400	-0.3952900	0.8239700	0.9274500	-0.3680100	0.6019300	0.8095500	-0.0846900	0.6184900	0.8099000	0.0388800	0.5763800	0.3270100	0.0378900	0.5399200	-0.1821000	0.0876900	0.6219500	0.8056700	-0.2047700	0.5752900	0.3109400	-0.2097100	0.5484600	-0.1657600	-0.2576900	0.7545800	-0.2199000	-0.3251500	0.6947000	-0.2261300	-0.3687300	0.5112200	-0.2297600	-0.2475900	0.7253500	-0.2298200	0.1729100	0.6827100	-0.2270600	0.1974300	0.4764900	-0.2312400	0.0666600
90	1.4833333	0.5706400	1.3600000	-0.0944000	0.5591200	1.3670500	0.0818500	0.5541200	1.0659400	0.1796000	0.7185300	0.8234800	0.2003400	0.5779100	1.3529000	-0.2868100	0.5414000	1.0733200	-0.3907000	0.8334200	0.9242600	-0.3633800	0.6022400	0.8097800	-0.0844300	0.6187400	0.8101100	0.0389400	0.5780600	0.3273000	0.0374500	0.5399800	-0.1818400	0.0877200	0.6133600	0.8044300	-0.2092300	0.5758400	0.3112900	-0.2099200	0.5486000	-0.1656800	-0.2576700	0.7548800	-0.2200500	-0.3251200	0.7026300	-0.2231700	-0.3649400	0.5123800	-0.2266400	-0.2469000	0.7335000	-0.2270200	0.1684800	0.6823800	-0.2273000	0.1971800	0.4762600	-0.2310100	0.0668500
91	1.5000000	0.5709400	1.3600500	-0.0944400	0.5577500	1.3669000	0.0818100	0.5455700	1.0655700	0.1847100	0.7188000	0.8313600	0.2005900	0.5792200	1.3524800	-0.2867900	0.5499800	1.0734200	-0.3871400	0.8329400	0.9283600	-0.3639100	0.6014400	0.8062600	-0.0844800	0.6177800	0.8069000	0.0392300	0.5773800	0.3307500	0.0373900	0.5399100	-0.1820400	0.0876800	0.6121400	0.8083500	-0.2085700	0.5747900	0.3137800	-0.2100800	0.5484000	-0.1657000	-0.2576100	0.7547400	-0.2199200	-0.3250400	0.7029400	-0.2232100	-0.3648500	0.5122200	-0.2263000	-0.2469800	0.7335800	-0.2270000	0.1682700	0.6837800	-0.2242700	0.1966500	0.4764900	-0.2311900	0.0666200
92	1.5166667	0.5705600	1.3599700	-0.0943900	0.5504400	1.3671500	0.0862700	0.5557300	1.0702400	0.1877300	0.7273900	0.8366100	0.1958600	0.5780500	1.3490800	-0.2867600	0.5505500	1.0736700	-0.3864800	0.8423500	0.9283600	-0.3591900	0.6019600	0.8097400	-0.0844200	0.6186100	0.8101400	0.0389800	0.5767300	0.3310900	0.0379500	0.5399500	-0.1817900	0.0877100	0.6040900	0.8073900	-0.2052500	0.5754600	0.3143100	-0.2102400	0.5485700	-0.1656600	-0.2576200	0.7633300	-0.2171400	-0.3212900	0.7029100	-0.2232000	-0.3648900	0.5122800	-0.2267100	-0.2468900	0.7231600	-0.2267500	0.1661800	0.6832000	-0.2242500	0.1964400	0.4762200	-0.2310300	0.0668200
93	1.5333333	0.5709300	1.3600000	-0.0944500	0.5491100	1.3670400	0.0862400	0.5559200	1.0703800	0.1880800	0.7369100	0.8487800	0.1987300	0.5793900	1.3485900	-0.2866800	0.5504300	1.0767800	-0.3872100	0.8418800	0.9327500	-0.3598600	0.6010800	0.8062200	-0.0844100	0.6181200	0.8099700	0.0390500	0.5774200	0.3234000	0.0373400	0.5397700	-0.1779300	0.0882500	0.6029400	0.8074700	-0.2046900	0.5750400	0.3140400	-0.2100100	0.5484500	-0.1657500	-0.2575900	0.7631900	-0.2169300	-0.3212500	0.7031500	-0.2232600	-0.3648200	0.5122500	-0.2266600	-0.2470000	0.7232000	-0.2266800	0.1659500	0.6837600	-0.2242100	0.1965900	0.4666700	-0.2315900	0.0627900
94	1.5500000	0.5704700	1.3599800	-0.0943800	0.5500700	1.3672600	0.0862400	0.5774900	1.0714800	0.1942600	0.7455900	0.8599700	0.1937200	0.5782000	1.3490600	-0.2866800	0.5511300	1.0771100	-0.3866000	0.8591200	0.9369300	-0.3510700	0.6012900	0.8064600	-0.0840600	0.6091200	0.8061800	0.0437900	0.5665700	0.3209100	0.0344600	0.5398600	-0.1818000	0.0876900	0.6039200	0.8038500	-0.2050300	0.5767300	0.3160800	-0.2095200	0.5484600	-0.1656600	-0.2576400	0.7721400	-0.2138000	-0.3248500	0.7023100	-0.2267500	-0.3653500	0.5120200	-0.2267400	-0.2470000	0.7313400	-0.2236800	0.1616300	0.6832000	-0.2240700	0.1963800	0.4658100	-0.2344300	0.0637200
95	1.5666667	0.5709600	1.3601200	-0.0944400	0.5488300	1.3670400	0.0862500	0.5691000	1.0710000	0.1993400	0.7455100	0.8673100	0.1940400	0.5794800	1.3524100	-0.2866900	0.5605900	1.0775200	-0.3911500	0.8577300	0.9521800	-0.3516700	0.6008900	0.8063700	-0.0843200	0.6087900	0.8133900	0.0437900	0.5704100	0.3209000	0.0328400	0.5398300	-0.1821300	0.0876400	0.6027500	0.8076100	-0.2046100	0.5753900	0.3184400	-0.2096800	0.5483200	-0.1656800	-0.2576300	0.7626200	-0.2203100	-0.3218000	0.7024700	-0.2267600	-0.3652800	0.5119100	-0.2264700	-0.2471200	0.7231000	-0.2265600	0.1660400	0.6827600	-0.2269800	0.1973100	0.4662200	-0.2346500	0.0634400
96	1.5833333	0.5706600	1.3601100	-0.0944000	0.5502800	1.3701600	0.0863400	0.5601600	1.0675500	0.2041100	0.7718100	0.8701500	0.1874600	0.5782700	1.3530100	-0.2868500	0.5802200	1.0793100	-0.3981400	0.8499300	0.9578300	-0.3550900	0.6013900	0.8065500	-0.0840300	0.6098700	0.8094100	0.0435400	0.5783100	0.3271100	0.0374000	0.5398700	-0.1818700	0.0877200	0.6037300	0.8073400	-0.2052000	0.5767800	0.3162900	-0.2094700	0.5483600	-0.1655300	-0.2576400	0.7625700	-0.2205500	-0.3219700	0.7020900	-0.2266800	-0.3654300	0.5133500	-0.2226800	-0.2463600	0.7231100	-0.2266500	0.1662200	0.6821900	-0.2271300	0.1971200	0.4659100	-0.2344700	0.0637200
97	1.6000000	0.5709000	1.3601300	-0.0944400	0.5489200	1.3699900	0.0863700	0.5705000	1.0754600	0.2074400	0.7813900	0.8785100	0.1908000	0.5794300	1.3527900	-0.2867600	0.5796700	1.0790000	-0.3988300	0.8488100	0.9654700	-0.3556600	0.6011600	0.8094800	-0.0844400	0.6103300	0.8125200	0.0433500	0.5765100	0.3268600	0.0378900	0.5397700	-0.1822400	0.0877200	0.6026000	0.8111000	-0.2047000	0.5750200	0.3216300	-0.2100100	0.5482000	-0.1655400	-0.2575800	0.7544500	-0.2195300	-0.3251000	0.7022000	-0.2265100	-0.3654000	0.5145400	-0.2183900	-0.2458600	0.7231600	-0.2264700	0.1661100	0.6822000	-0.2300800	0.1980600	0.4761900	-0.2341300	0.0672600
98	1.6166667	0.5705800	1.3633800	-0.0942800	0.5501500	1.3701800	0.0864300	0.5707200	1.0758300	0.2074600	0.8174400	0.8820700	0.1875500	0.5781500	1.3534500	-0.2868300	0.5904200	1.0833900	-0.4020200	0.8661900	0.9665800	-0.3546200	0.6018500	0.8099100	-0.0840800	0.6116000	0.8162000	0.0431500	0.5771000	0.3231400	0.0380900	0.5398600	-0.1852100	0.0883400	0.6038600	0.8108100	-0.2052100	0.5760500	0.3192200	-0.2097400	0.5486900	-0.1615400	-0.2571300	0.7629500	-0.2201800	-0.3293900	0.7019900	-0.2265900	-0.3655000	0.5146300	-0.2185100	-0.2457700	0.7230300	-0.2265900	0.1662500	0.6815000	-0.2301400	0.1978400	0.4657200	-0.2400000	0.0649600
